<svg id="Layer_1" data-name="Layer 1" xmlns="http://www.w3.org/2000/svg" viewBox="0 0 12.13 11.86"><defs><style>.cls-1{fill:none;stroke:#021826;stroke-miterlimit:10;stroke-width:0.1px;}.cls-2{fill:#034773;}.cls-3{isolation:isolate;font-size:3.54px;fill:#fff;font-family:Roboto-Medium, Roboto;font-weight:500;}</style></defs><title>icon</title><path class="cls-1" d="M3.33.54A1.36,1.36,0,0,1,4.7,1.9v9.84H4.28v-.46a1,1,0,0,0-.34-.69,1,1,0,0,0-1.38,0,.94.94,0,0,0-.31.73v.45H1.92V1.9A1.36,1.36,0,0,1,3.29.54Z" transform="translate(-1.87 -0.49)"/><path class="cls-1" d="M3.33,1a1,1,0,0,1,1,1v9.33a1,1,0,0,0-.37-.69,1,1,0,0,0-1.38,0,.94.94,0,0,0-.31.73V2a1,1,0,0,1,1-1Z" transform="translate(-1.87 -0.49)"/><path class="cls-1" d="M3.3,10.3V9" transform="translate(-1.87 -0.49)"/><path class="cls-1" d="M3.3,7.75V7.11" transform="translate(-1.87 -0.49)"/><path class="cls-1" d="M3.3,6.8V3.68" transform="translate(-1.87 -0.49)"/><path class="cls-1" d="M3.32,3.3V1" transform="translate(-1.87 -0.49)"/><path class="cls-1" d="M2.81,1.18V2.47" transform="translate(-1.87 -0.49)"/><path class="cls-1" d="M2.8,3.65v.67" transform="translate(-1.87 -0.49)"/><path class="cls-1" d="M2.8,4.62V7.75" transform="translate(-1.87 -0.49)"/><path class="cls-1" d="M2.78,8.08V10.3" transform="translate(-1.87 -0.49)"/><path class="cls-1" d="M3.78,1.18V2.47" transform="translate(-1.87 -0.49)"/><path class="cls-1" d="M3.76,3.67v.65" transform="translate(-1.87 -0.49)"/><path class="cls-1" d="M3.76,4.62V7.75" transform="translate(-1.87 -0.49)"/><path class="cls-1" d="M3.76,8.09V10.3" transform="translate(-1.87 -0.49)"/><path class="cls-1" d="M4.71,1h.55a1.49,1.49,0,0,0,3,0h.56v9.24a2,2,0,0,1-2,2h0a1.94,1.94,0,0,1-1.49-.59,2,2,0,0,1-.59-1.48Z" transform="translate(-1.87 -0.49)"/><path class="cls-1" d="M5.69,1.9a1.49,1.49,0,0,0,2.1,0A1.6,1.6,0,0,0,8.22,1h0V10a1.49,1.49,0,0,1-3,0V1h0A1.43,1.43,0,0,0,5.69,1.9Z" transform="translate(-1.87 -0.49)"/><path class="cls-1" d="M5.69,1.9a1.49,1.49,0,0,0,2.1,0A1.6,1.6,0,0,0,8.22,1h0V10a1.49,1.49,0,0,1-3,0V1h0A1.43,1.43,0,0,0,5.69,1.9Z" transform="translate(-1.87 -0.49)"/><path class="cls-1" d="M6,2.17V7.63" transform="translate(-1.87 -0.49)"/><path class="cls-1" d="M6,8.18V9" transform="translate(-1.87 -0.49)"/><path class="cls-1" d="M7.67,2V6.06" transform="translate(-1.87 -0.49)"/><path class="cls-1" d="M7.65,6.67V8.86" transform="translate(-1.87 -0.49)"/><line class="cls-1" x1="4.99" y1="10.93" x2="5.01" y2="6.14"/><rect class="cls-2" x="7.84" y="0.7" width="4.18" height="11.1" rx="0.59"/><text class="cls-3" transform="matrix(0.01, -1, 1, 0.01, 11.1, 11.12)">BOOK</text></svg>