<svg id="Layer_1" data-name="Layer 1" xmlns="http://www.w3.org/2000/svg" viewBox="0 0 13.41 8.04"><defs><style>.cls-1{fill:#034773;}.cls-2{font-size:2.61px;fill:#fff;}.cls-2,.cls-3{font-family:Roboto-Medium, Roboto;font-weight:500;}.cls-3{font-size:2.4px;fill:#021826;}.cls-4{letter-spacing:-0.01em;}.cls-5{fill:none;stroke:#021826;stroke-miterlimit:10;stroke-width:0.1px;}</style></defs><title>logo</title><rect class="cls-1" x="5.25" y="1.04" width="8.17" height="3.13"/><text class="cls-2" transform="translate(5.69 3.51)">BOOK</text><text class="cls-3" transform="translate(5.64 6.77)">S<tspan class="cls-4" x="1.45" y="0">T</tspan><tspan x="2.87" y="0">ORE</tspan></text><path class="cls-5" d="M1.59,3.14a.92.92,0,0,1,.92.93l0,6.62H2.23v-.31A.67.67,0,0,0,2,9.91a.66.66,0,0,0-1.14.47v.3H.64l0-6.62A.92.92,0,0,1,1.59,3.14Z" transform="translate(-0.59 -3.09)"/><path class="cls-5" d="M1.59,3.42a.67.67,0,0,1,.47.2.67.67,0,0,1,.19.47l0,6.29A.67.67,0,0,0,2,9.91a.66.66,0,0,0-1.14.47l0-6.29A.67.67,0,0,1,1.59,3.42Z" transform="translate(-0.59 -3.09)"/><path class="cls-5" d="M1.57,9.72V8.84" transform="translate(-0.59 -3.09)"/><path class="cls-5" d="M1.57,8V7.57" transform="translate(-0.59 -3.09)"/><path class="cls-5" d="M1.57,7.36V5.26" transform="translate(-0.59 -3.09)"/><path class="cls-5" d="M1.58,5V3.47" transform="translate(-0.59 -3.09)"/><path class="cls-5" d="M1.24,3.57v.87" transform="translate(-0.59 -3.09)"/><path class="cls-5" d="M1.23,5.24v.45" transform="translate(-0.59 -3.09)"/><path class="cls-5" d="M1.23,5.89V8" transform="translate(-0.59 -3.09)"/><path class="cls-5" d="M1.22,8.22v1.5" transform="translate(-0.59 -3.09)"/><path class="cls-5" d="M1.89,3.57v.87" transform="translate(-0.59 -3.09)"/><path class="cls-5" d="M1.88,5.25v.44" transform="translate(-0.59 -3.09)"/><path class="cls-5" d="M1.88,5.89V8" transform="translate(-0.59 -3.09)"/><path class="cls-5" d="M1.88,8.23V9.72" transform="translate(-0.59 -3.09)"/><path class="cls-5" d="M2.52,3.47h.37a1,1,0,0,0,2,0h.38l0,6.23a1.37,1.37,0,0,1-1.38,1.36,1.32,1.32,0,0,1-1-.4,1.38,1.38,0,0,1-.4-1Z" transform="translate(-0.59 -3.09)"/><path class="cls-5" d="M3.18,4.06a1,1,0,0,0,1.7-.58h0l0,6a1,1,0,1,1-2,0v-6h0A1,1,0,0,0,3.18,4.06Z" transform="translate(-0.59 -3.09)"/><path class="cls-5" d="M3.18,4.06a1,1,0,0,0,1.7-.58h0l0,6a1,1,0,1,1-2,0v-6h0A1,1,0,0,0,3.18,4.06Z" transform="translate(-0.59 -3.09)"/><path class="cls-5" d="M3.41,4.24V7.92" transform="translate(-0.59 -3.09)"/><path class="cls-5" d="M3.4,8.29v.56" transform="translate(-0.59 -3.09)"/><path class="cls-5" d="M4.51,4.13V6.86" transform="translate(-0.59 -3.09)"/><path class="cls-5" d="M4.5,7.27V8.75" transform="translate(-0.59 -3.09)"/><line class="cls-5" x1="3.38" y1="7.38" x2="3.39" y2="4.15"/></svg>